<?xml version="1.0" standalone="no"?>
<!DOCTYPE svg PUBLIC "-//W3C//DTD SVG 20010904//EN"
 "http://www.w3.org/TR/2001/REC-SVG-20010904/DTD/svg10.dtd">
<svg version="1.0" xmlns="http://www.w3.org/2000/svg"
 width="512.000000pt" height="512.000000pt" viewBox="0 0 512.000000 512.000000"
 preserveAspectRatio="xMidYMid meet">

<g transform="translate(0.000000,512.000000) scale(0.100000,-0.100000)"
fill="#000000" stroke="none">
<path d="M1103 5101 c-75 -26 -130 -65 -164 -119 -61 -97 -59 -57 -59 -1084
l0 -938 120 0 120 0 0 935 0 936 25 25 24 24 1053 -2 1053 -3 5 -390 c5 -374
6 -392 27 -437 30 -66 105 -143 172 -175 l56 -28 390 -5 390 -5 3 -1773 2
-1773 -25 -24 -24 -25 -1551 0 -1551 0 -24 25 -25 24 0 296 0 295 -121 0 -120
0 3 -322 3 -323 34 -63 c37 -68 83 -110 158 -145 l48 -22 1595 0 1595 0 56 26
c71 33 125 87 158 158 l26 56 3 1835 2 1835 -602 602 -603 603 -1100 0 c-1031
-1 -1103 -2 -1152 -19z"/>
<path d="M320 2627 c-49 -16 -133 -102 -148 -153 -17 -59 -17 -1049 0 -1108
16 -55 99 -138 154 -154 60 -17 3288 -17 3348 0 55 16 138 99 154 154 17 59
17 1049 0 1108 -16 55 -99 138 -154 154 -56 16 -3301 16 -3354 -1z m1137 -357
c98 -43 163 -120 163 -191 0 -47 -21 -69 -65 -69 -30 0 -38 6 -68 53 -45 69
-86 103 -137 111 -83 13 -160 -28 -203 -108 -19 -36 -22 -56 -22 -161 0 -113
2 -123 27 -167 34 -56 92 -88 161 -88 85 0 140 37 173 115 9 22 23 48 32 58
23 26 67 22 91 -10 57 -72 -48 -232 -177 -269 -85 -25 -213 -16 -286 20 -68
33 -124 99 -157 183 -30 77 -33 233 -6 309 55 160 194 251 361 239 38 -3 89
-14 113 -25z m691 9 c57 -17 120 -74 136 -124 16 -45 9 -72 -26 -98 -33 -25
-71 -9 -97 40 -35 69 -64 88 -135 88 -95 0 -147 -39 -132 -99 9 -37 43 -55
162 -88 124 -33 192 -66 227 -108 69 -82 59 -199 -24 -282 -62 -62 -127 -82
-253 -76 -116 5 -184 37 -233 112 -54 79 -40 166 26 166 37 0 47 -9 79 -70 38
-71 79 -100 144 -100 60 0 108 19 136 55 26 32 27 55 8 94 -17 32 -55 50 -186
86 -114 31 -171 63 -200 110 -78 127 -2 270 163 305 53 11 149 6 205 -11z
m375 -1 c15 -15 54 -114 111 -283 49 -143 92 -266 96 -274 4 -8 43 93 99 261
50 151 97 282 104 291 7 9 26 20 44 23 26 5 37 1 58 -21 22 -21 26 -32 21 -58
-8 -38 -209 -584 -231 -627 -20 -40 -53 -60 -95 -60 -42 0 -75 20 -94 59 -17
31 -189 496 -217 584 -21 64 -14 97 25 115 33 17 55 14 79 -10z"/>
</g>
</svg>
